<svg id="visual" viewBox="0 0 1200 450" width="1200" height="450" xmlns="http://www.w3.org/2000/svg" xmlns:xlink="http://www.w3.org/1999/xlink" version="1.1"><rect x="0" y="0" width="1200" height="450" fill="#ffffff"></rect><defs><linearGradient id="grad1_0" x1="62.5%" y1="0%" x2="100%" y2="100%"><stop offset="-3.333333333333332%" stop-color="#ffffff" stop-opacity="1"></stop><stop offset="103.33333333333334%" stop-color="#ffffff" stop-opacity="1"></stop></linearGradient></defs><defs><linearGradient id="grad2_0" x1="0%" y1="0%" x2="37.5%" y2="100%"><stop offset="-3.333333333333332%" stop-color="#ffffff" stop-opacity="1"></stop><stop offset="103.33333333333334%" stop-color="#ffffff" stop-opacity="1"></stop></linearGradient></defs><g transform="translate(1200, 0)"><path d="M0 405C-42 401.3 -84 397.6 -125.2 385.2C-166.3 372.8 -206.5 351.8 -230.4 317.1C-254.3 282.5 -261.8 234.3 -271 196.9C-280.3 159.5 -291.2 133 -313.8 102C-336.5 71 -370.7 35.5 -405 0L0 0Z" fill="#0284c7"></path></g><g transform="translate(0, 450)"><path d="M0 -405C42.5 -401.1 85 -397.2 125.2 -385.2C165.3 -373.2 203.2 -353.1 236.9 -326C270.6 -298.9 300.2 -264.8 311.5 -226.3C322.7 -187.8 315.6 -145 328.1 -106.6C340.6 -68.2 372.8 -34.1 405 0L0 0Z" fill="#0284c7"></path></g></svg>