<?xml version="1.0" encoding="utf-8"?>
<!-- Generator: Adobe Illustrator 25.4.1, SVG Export Plug-In . SVG Version: 6.00 Build 0)  -->
<svg version="1.1" id="Layer_1" xmlns="http://www.w3.org/2000/svg" xmlns:xlink="http://www.w3.org/1999/xlink" x="0px" y="0px"
	 viewBox="0 0 24 24" style="enable-background:new 0 0 24 24;" xml:space="preserve">
<style type="text/css">
	.st0{fill:#0EA5E9;}
</style>
<polyline class="st0" points="14.1,11 20.1,11 20.1,15 18.1,15 18.1,13 14.1,13 14.1,11 "/>
<path class="st0" d="M18.1,4h-10c-2.8,0-5,2.2-5,5v9h-2v2h20c1.1,0,2-0.9,2-2V9C23.1,6.3,20.8,4,18.1,4z M11.1,18h-6V9
	c0-1.7,1.3-3,3-3c1.7,0,3,1.3,3,3V18z M21.1,18h-8V9c0-1.1-0.3-2.1-1-3h6c1.7,0,3,1.3,3,3V18z"/>
</svg>
